<?xml version="1.0" encoding="utf-8"?>
<!-- Generator: Adobe Illustrator 18.0.0, SVG Export Plug-In . SVG Version: 6.00 Build 0)  -->
<!DOCTYPE svg PUBLIC "-//W3C//DTD SVG 1.1//EN" "http://www.w3.org/Graphics/SVG/1.1/DTD/svg11.dtd">
<svg version="1.1" id="Layer_1" xmlns="http://www.w3.org/2000/svg" xmlns:xlink="http://www.w3.org/1999/xlink" x="0px" y="0px"
	 viewBox="0 0 513.1 90.8" enable-background="new 0 0 513.1 90.8" xml:space="preserve">
<g>
	<g>
		<g>
			<g>
				<g>
					<g>
						<g>
							<polygon fill="#156734" points="35.8,30.8 42.1,40.4 42,27.6 42,0.6 58.3,0.6 58.3,69 43.3,69 22.5,38.9 16.1,29.3 16.2,42 
								16.2,69 0,69 0,0.6 15,0.6 							"/>
							<path fill="#156734" d="M108.4,43.5V0.6h16.2v43.3c0,15.2-6.2,26.6-29.1,26.6c-22.8,0-29.1-11.4-29.1-26.6V0.6h16.2v42.9
								c0,6.8,1.3,12.5,12.8,12.5C107,56.1,108.4,50.4,108.4,43.5z"/>
							<polygon fill="#156734" points="164.8,69 148.6,69 148.6,15.1 129.8,15.1 129.8,0.6 183.6,0.6 183.6,15.1 164.8,15.1 							
								"/>
							<path fill="#156734" d="M233.4,43.4c7-2.6,12.3-8.4,12.3-20.4c0-18.9-13.4-22.4-25.8-22.4h-30.3V69h16.2V45.4h10.4L229.6,69
								H249L233.4,43.4z M216.9,32.2h-10.7V13.3h10.7c7.7,0,12.9,1.2,12.9,9.4C229.9,31,224.6,32.2,216.9,32.2z"/>
							<rect x="257.3" y="29.9" fill="#156734" width="16.2" height="39.2"/>
						</g>
					</g>
				</g>
			</g>
			<g>
				<path fill="#F7941E" d="M276,5.9c0,0,0.4,0.6,0.4,0.6c0,0,0.1,0,0.1,0s-2-3.2-5.1-4.8c-3.5-1.8-10.4-3.2-16,2.2
					c-6.5,6.3-4.6,19.2,6.9,19.2c4.6,0,8.2-3,9-6.9c0.6-3-0.4-4.9-0.4-4.9h-9.1c0,0,4.1,0,5.6,2.9c1.3,2.3,0.4,4.5-1.3,5.6
					c-1.4,1-4.8,1.7-7.1,0.2c-2.4-1.5-3.6-3.7-3.7-6.9c-0.1-3.7,0.9-6.8,4.3-9c3.1-2,6.3-2.2,8.2-2.1C272.3,2.2,275,4.8,276,5.9z"/>
				<path fill="#F7941E" d="M275.8,6.6c0,0-5-5.3-12.1-3c-8.5,2.7-6.2,10.3-6.2,10.3s-0.3-5.4,4.1-7.3c5.2-2.2,7.9,1.7,7.9,1.7
					s0.2,0,0.2,0c-0.9-1.5-1.7-2.2-1.6-2.2c1,0.4,2.3,2,2.3,2L275.8,6.6z"/>
				<path fill="#F7941E" d="M272.8,11.2h4.5c0,0,1.9,9.6-8.2,13.4c-8.3,3.1-14.3-3.3-14.3-3.3s2.3,2.1,5.8,2.5
					c3.5,0.4,8.1-0.4,10.7-4C274.7,14.9,272.8,11.2,272.8,11.2z"/>
			</g>
		</g>
	</g>
	<g>
		<path fill="#8FC73F" d="M284.1,69.8V0.9h12.8v57h21v11.9H284.1z"/>
		<path fill="#8FC73F" d="M320.4,12.3V0.9h12.4v11.4H320.4z M320.4,69.8V18.2h12.4v51.7H320.4z"/>
		<path fill="#8FC73F" d="M355.2,69.8l-20.9-51.7h13.4l12.6,34.3l11.9-34.3h13.6l-21,51.7H355.2z"/>
		<path fill="#8FC73F" d="M387.5,12.3V0.9h12.4v11.4H387.5z M387.5,69.8V18.2h12.4v51.7H387.5z"/>
		<path fill="#8FC73F" d="M407.6,69.8V18.2H419v4.5c4.4-4.4,8.6-6.3,14.1-6.3c7.4,0,14.7,4.2,17.8,10.5c2,4,2.6,7.6,2.6,15v27.9H441
			V44.3c0-11.1-3.4-16.5-10.4-16.5c-4,0-8,2.7-9.4,6.4c-1,2.6-1.2,5-1.2,11.1v24.6H407.6z"/>
		<path fill="#8FC73F" d="M501.7,18.2h11.4v42.3c0,10.3-2.8,17.4-8.9,23c-5.3,4.9-12,7.3-19.4,7.3c-11.8,0-21.8-6.5-25.9-17h14.1
			c3.3,3.8,7.5,5.8,12.6,5.8c9,0,15.5-6.5,16-16.2c-4.6,5.6-10.1,8.3-17,8.3c-14.5,0-26.4-12.7-26.4-28c0-15,11.9-27.2,26.4-27.2
			c7.4,0,12.9,2.7,17.3,8.2V18.2z M500.7,44c0-8.9-6.8-16.2-15.2-16.2c-8.5,0-15.1,7-15.1,15.9c0,9.3,6.7,16.5,15.4,16.5
			C494,60.2,500.7,53,500.7,44z"/>
	</g>
</g>
</svg>
